PathFileType	4	(X/Y/Z)	s03c0301.trc
DataRate	CameraRate	NumFrames	NumMarkers	Units	OrigDataRate	OrigDataStartFrame	OrigNumFrames
200	200	4	52	mm	200	750	2000
Frame#	Time	racr			lacr			c7			jug			rlel			rdr			llel			ldr			s2			lic			ric			lasi			rasi			rpsi			lpsi			rgt			lgt			rth1			rth2			rth3			rth4			rlfc			rmfc			rsh1			rsh2			rsh3			rsh4			rlmal			rmmal			rcal			rtoe			rmt5			rmt1			lth1			lth2			lth4			lth3			llfc			lmfc			lsh1			lsh2			lsh3			lsh4			llmal			lmmal			lcal			ltoe			lmt1			lmt5			SBIKE			LBIKE			RBIKE			
		X1	Y1	Z1	X2	Y2	Z2	X3	Y3	Z3	X4	Y4	Z4	X5	Y5	Z5	X6	Y6	Z6	X7	Y7	Z7	X8	Y8	Z8	X9	Y9	Z9	X10	Y10	Z10	X11	Y11	Z11	X12	Y12	Z12	X13	Y13	Z13	X14	Y14	Z14	X15	Y15	Z15	X16	Y16	Z16	X17	Y17	Z17	X18	Y18	Z18	X19	Y19	Z19	X20	Y20	Z20	X21	Y21	Z21	X22	Y22	Z22	X23	Y23	Z23	X24	Y24	Z24	X25	Y25	Z25	X26	Y26	Z26	X27	Y27	Z27	X28	Y28	Z28	X29	Y29	Z29	X30	Y30	Z30	X31	Y31	Z31	X32	Y32	Z32	X33	Y33	Z33	X34	Y34	Z34	X35	Y35	Z35	X36	Y36	Z36	X37	Y37	Z37	X38	Y38	Z38	X39	Y39	Z39	X40	Y40	Z40	X41	Y41	Z41	X42	Y42	Z42	X43	Y43	Z43	X44	Y44	Z44	X45	Y45	Z45	X46	Y46	Z46	X47	Y47	Z47	X48	Y48	Z48	X49	Y49	Z49	X50	Y50	Z50	X51	Y51	Z51	X52	Y52	Z52	
750	3.7500	714.753052	1499.744400	-97.875003	702.839215	1497.291818	-425.011682	651.935654	1600.744085	-264.999879	670.608158	1429.697924	-257.882802	640.128691	1223.496340	-9.107513	771.356559	960.755163	-55.997064	672.934765	1218.695532	-493.348669	765.053109	934.794906	-431.941972	138.538503	1309.509786	-234.924534	311.310283	1314.413362	-428.047274	305.414672	1353.633692	-63.350506	325.361241	1244.340224	-382.478466	338.224217	1281.095933	-106.505602	167.321246	1364.074446	-201.224105	171.870074	1351.636440	-285.986872	273.284694	1263.653801	-42.589696	227.979900	1184.730296	-424.642590	378.629883	1145.857909	-26.265261	461.404392	1113.449259	-31.807965	517.503753	1049.116991	-37.948358	480.733911	1142.525422	-46.657403	611.084736	954.931453	-70.642259	607.879201	938.997950	-199.903632	511.648681	820.946300	-45.521582	470.311813	742.958887	-57.313408	396.221997	695.411544	-53.358224	491.664357	725.060859	-83.701249	300.593081	597.936224	-66.648321	321.915890	599.447221	-155.736681	220.196488	582.355749	-101.383841	490.986791	432.577726	-124.763761	384.471180	474.750066	-47.823365	404.528146	477.246373	-162.044022	268.570594	1032.379398	-437.928396	309.851466	956.133277	-443.055222	345.168918	965.105974	-441.839213	308.888411	867.434666	-434.300470	352.540186	746.528088	-417.731346	356.193180	733.180576	-296.352437	253.405376	608.004489	-442.622796	234.909736	526.937070	-426.536462	173.774742	459.802018	-421.639409	265.166856	512.814293	-406.024439	107.920965	352.412202	-405.421980	146.896921	359.510701	-315.976885	37.086966	354.272009	-358.326868	259.248159	136.615983	-353.308709	193.714947	198.302163	-315.415258	156.985122	200.717849	-426.762721	-214.077376	946.257325	-232.722331	-9.154166	81.757945	-433.371664	-9.010239	81.774519	-32.960970	
751	3.7550	713.998719	1499.634470	-97.418715	702.298565	1497.472355	-424.290759	651.662266	1601.106516	-264.325860	669.490416	1429.749162	-257.181453	637.888145	1223.748291	-8.049534	770.217452	961.608607	-55.886209	670.303348	1219.166518	-493.279555	764.280431	935.773747	-431.819100	139.124924	1311.784242	-232.481735	308.883543	1317.023938	-426.382211	304.651866	1355.686487	-62.139926	323.932508	1246.521007	-382.591013	337.427618	1282.130488	-105.943173	169.787872	1365.516443	-199.270384	171.444646	1354.127847	-284.261422	272.955700	1263.911641	-42.056905	227.205283	1187.322049	-423.766434	376.216019	1143.597131	-25.660668	458.488518	1109.969833	-31.590790	514.016973	1045.054033	-38.056578	478.331740	1139.165449	-45.773828	606.401622	950.232478	-70.642385	602.447541	935.030240	-200.448525	509.392849	814.386454	-46.062949	469.197191	735.733286	-57.972843	396.525376	686.525196	-53.534028	491.212824	718.109163	-84.186996	302.720235	587.228282	-66.880091	323.542576	589.093761	-156.074199	222.068703	569.269200	-101.159523	498.057103	429.658681	-124.159533	389.747209	467.499560	-46.899730	409.704519	470.699567	-161.096906	271.117721	1035.222287	-438.041543	314.004928	960.043601	-443.682599	349.068663	969.662187	-442.456523	314.968291	871.246468	-435.634856	360.547286	750.793629	-420.420293	364.772511	737.211516	-298.902520	258.771591	613.476551	-444.424592	238.441085	532.861936	-428.043760	175.871564	467.156381	-422.875016	268.329374	518.175380	-407.274764	107.834708	360.988101	-406.359830	144.714392	364.993796	-317.307670	37.283558	365.397587	-358.607846	250.917066	139.527673	-352.970827	188.274152	204.346262	-316.317058	151.297930	207.204036	-426.498583	-214.064137	946.374946	-232.488978	-9.175345	81.807628	-433.378642	-9.030699	81.798955	-32.944065	
752	3.7600	713.174780	1499.374475	-96.663139	701.806006	1497.635875	-423.848804	651.358328	1601.264626	-263.696777	668.472604	1429.651669	-256.630830	635.712603	1223.897773	-6.838034	768.936730	962.107943	-55.243851	667.187609	1219.573074	-493.624191	763.475636	936.865862	-431.905552	139.131119	1314.042089	-231.146286	306.628865	1319.681644	-425.517446	304.260547	1357.243688	-60.976012	322.681222	1248.461942	-382.717085	335.611218	1284.077619	-102.433186	170.757423	1367.492481	-197.928239	171.377075	1356.532699	-281.959610	272.510771	1263.279454	-41.429598	226.561797	1189.649995	-423.100448	373.688595	1140.390232	-25.226387	455.520867	1105.697750	-31.156288	509.953019	1039.932258	-38.130011	475.678532	1134.174569	-45.554062	601.463061	944.251717	-71.233886	596.622917	929.307652	-200.543816	506.753447	806.746508	-46.302467	468.484291	727.010732	-57.823217	396.518121	676.543976	-53.536460	490.388259	710.100280	-84.503931	304.448427	575.607441	-67.199764	325.858072	577.430860	-156.586986	223.774870	555.405586	-100.946675	504.528062	426.116340	-123.495737	394.366280	459.654633	-45.675295	414.575660	462.985149	-160.114902	273.627392	1038.153475	-438.325553	318.124312	963.851661	-444.321910	352.977423	974.276016	-443.114202	320.975465	875.096767	-436.891262	368.451618	755.261869	-422.844443	373.453141	741.450737	-301.488985	264.280274	618.398042	-445.902136	242.204466	538.503390	-429.610429	178.278761	474.126218	-424.143213	271.685656	523.301889	-408.359407	108.141470	369.414955	-407.305273	142.965160	370.706135	-318.670866	37.813263	376.479452	-359.214909	242.870079	142.841697	-352.692565	182.820439	210.473192	-316.797157	146.015076	213.993099	-426.342171	-214.086877	946.413839	-232.182519	-9.204481	81.929343	-433.305018	-9.033601	81.781591	-32.891939	
753	3.7650	712.380459	1498.841139	-95.718457	701.365149	1497.683036	-423.634925	651.055650	1601.290243	-263.057711	667.607917	1429.315228	-256.199952	633.576024	1223.976868	-5.443865	767.492382	962.826268	-54.874827	663.752997	1219.933141	-494.302860	762.405495	937.969082	-432.064660	138.921654	1314.866810	-229.492860	304.533251	1322.077027	-424.587790	304.101369	1358.288225	-59.855960	321.514066	1250.098892	-382.847125	335.409263	1282.687191	-101.894194	170.556313	1369.129051	-195.382140	171.200739	1358.489786	-280.348793	271.797353	1261.970503	-40.754883	226.115240	1191.719622	-422.613302	371.588102	1136.651893	-23.903039	452.375497	1100.610781	-30.506155	505.746427	1034.097867	-38.039135	473.044457	1128.800238	-44.103112	596.062775	937.265441	-71.908579	590.243183	923.341338	-200.897274	503.716491	798.103097	-46.099132	467.051080	717.533397	-57.884566	396.164768	665.504890	-53.619750	488.731456	701.328973	-84.689161	305.879328	563.243104	-67.522751	326.407025	565.407696	-157.168459	225.006167	540.756288	-100.811137	510.420323	421.700139	-122.618206	398.914907	451.065011	-44.972752	419.199840	454.711063	-159.418476	276.225402	1041.020812	-438.498268	322.157487	967.725355	-444.966524	356.752620	978.733964	-443.875656	326.817544	878.994582	-438.231731	376.191647	759.543479	-425.402737	381.807788	745.662520	-303.983607	269.624334	623.222175	-447.813477	246.000640	543.756933	-431.213578	180.873929	480.639670	-425.386750	274.794006	527.843999	-408.424041	108.672582	377.649413	-408.240467	141.672755	376.639676	-320.064873	38.811875	387.576782	-359.879064	235.067463	146.566669	-352.340291	177.336076	216.653465	-316.814416	141.125083	220.992408	-426.160440	-214.136654	946.367773	-231.843751	-9.219599	81.963728	-433.277978	-9.048366	81.716439	-32.898431	
